<?xml version="1.0" standalone="no"?>
<!DOCTYPE svg PUBLIC "-//W3C//DTD SVG 20010904//EN"
 "http://www.w3.org/TR/2001/REC-SVG-20010904/DTD/svg10.dtd">
<svg version="1.0" xmlns="http://www.w3.org/2000/svg"
 width="700.000000pt" height="700.000000pt" viewBox="0 0 700.000000 700.000000"
 preserveAspectRatio="xMidYMid meet">
<metadata>
Created by potrace 1.11, written by Peter Selinger 2001-2013
</metadata>
<g transform="translate(0.000000,700.000000) scale(0.100000,-0.100000)"
fill="#000000" stroke="none">
<path d="M2673 6698 c-28 -4 -132 -29 -230 -54 -173 -46 -182 -47 -323 -47
-80 0 -218 8 -307 18 -89 9 -196 16 -236 13 -69 -3 -79 -7 -145 -50 -39 -26
-87 -54 -107 -63 -101 -41 -344 -263 -457 -415 -167 -224 -294 -497 -397 -853
-45 -153 -131 -534 -155 -682 -50 -307 -66 -408 -71 -450 -3 -27 -11 -95 -19
-150 -8 -55 -17 -129 -20 -165 -4 -36 -9 -87 -12 -115 -29 -283 -32 -341 -29
-660 1 -187 5 -351 8 -365 3 -14 8 -47 12 -75 65 -516 325 -1113 631 -1451
251 -277 527 -426 937 -504 141 -27 150 -30 202 -71 298 -236 474 -301 815
-301 178 -1 177 -1 415 43 108 20 193 30 260 30 110 0 114 -1 335 -41 218 -40
223 -40 345 -44 321 -10 538 61 811 266 64 48 101 69 130 73 312 44 501 98
683 196 254 137 486 374 661 675 212 365 365 849 398 1259 14 181 7 659 -13
810 -2 17 -6 59 -10 95 -6 77 -15 163 -20 205 -8 70 -17 142 -20 165 -2 14 -9
63 -15 110 -20 154 -19 146 -65 410 -165 957 -377 1454 -778 1827 -64 60 -248
207 -313 250 -50 33 -61 36 -127 37 -71 1 -186 -8 -322 -24 -124 -15 -350 -5
-435 19 -192 55 -225 63 -293 75 -87 15 -171 13 -332 -9 -16 -3 -68 -9 -115
-15 -47 -6 -100 -14 -117 -16 -146 -23 -392 -29 -498 -13 -413 60 -556 73
-662 57z"/>
</g>
</svg>
